<svg xmlns:xlink="http://www.w3.org/1999/xlink" xmlns="http://www.w3.org/2000/svg" height="75" width="213" viewBox="0,0,213,75"><path d="M37.496593 21.605106Q38.379137 23.562052 40.067482 23.907395Q40.604683 24.022509 41.29537 23.830652Q41.103512 29.816602 41.026769 35.72581Q40.988398 41.558275 41.218627 47.544225Q40.950026 47.505854 40.643055 47.505854Q39.069824 47.505854 37.765194 49.347685Q38.45588 42.364076 38.417509 35.45721Q38.340766 28.511972 37.496593 21.605106zM37.343107 50.498829Q38.417509 48.656998 39.49191 48.196541Q39.415167 49.23257 39.415167 50.230229Q40.144225 49.846514 40.950026 49.961629Q42.983715 50.2686 44.211602 52.992975Q43.022086 45.395423 43.022086 37.874613Q43.022086 30.085203 43.866259 22.717879Q42.8686 24.636453 41.717456 25.250397Q41.717456 24.214367 41.794199 23.139965Q40.988398 23.638794 40.220968 23.485309Q37.995423 23.063222 36.997764 20.185361Q38.033794 27.744543 38.110537 35.342095Q38.225651 42.901277 37.343107 50.498829zM82.398882 48.848856H80.672166Q77.257104 48.848856 76.297817 46.700053Q77.487333 45.664023 78.945449 44.55125Q79.521021 46.738424 82.398882 46.584938Q83.204683 46.546567 84.240713 46.316338Q85.161629 45.779137 85.084886 44.81985Q85.008143 43.707078 83.204683 43.016391L79.367535 41.481532Q77.026875 40.13853 76.681532 36.569983Q76.489674 34.42118 78.676849 33.845608Q79.636136 33.615379 82.629111 33.615379Q87.54066 33.615379 88.461576 36.147896Q87.809261 36.685097 87.080202 37.145555L85.660458 38.104842Q85.161629 36.186268 81.900053 35.956039Q81.324481 35.99441 80.288451 36.416497Q79.712879 36.76184 79.712879 37.874613Q80.058222 38.949014 81.900053 39.639701Q82.974454 40.023416 85.660458 41.136189Q87.502289 41.980361 87.694146 44.55125Q87.770889 45.203565 87.694146 46.201224Q87.655775 47.083768 87.080202 47.736083Q85.4686 48.848856 82.398882 48.848856zM87.195317 51.458116Q88.116232 51.496488 89.497606 51.189516Q90.572007 50.498829 90.38015 49.270942Q90.303407 48.69537 89.996435 47.083768Q89.459234 44.129164 87.655775 42.901277Q87.118574 41.481532 85.852315 40.752474Q84.586056 40.330387 82.09191 39.371101Q82.245396 38.910643 82.513997 38.795528Q83.12794 38.335071 83.780255 38.296699Q84.586056 38.258328 85.353486 38.526928L85.391857 38.642042L85.4686 38.603671L85.737201 38.680414H85.698829Q86.811602 39.179243 87.003459 40.445502Q88.269718 39.601329 90.188292 37.912984Q89.919692 37.183926 88.922033 35.99441Q87.770889 33.270036 82.629111 33.154921Q79.444278 33.11655 77.448961 33.692122Q76.029217 34.267694 76.259446 36.378125Q76.37456 37.644384 77.295475 39.754815Q77.832676 40.867588 78.868706 41.596646Q79.559393 43.093134 80.864023 43.783821Q81.82331 44.052421 82.782597 44.436136L84.701171 45.203565Q84.355827 46.316338 82.398882 46.201224Q81.976796 46.277967 80.748909 45.970995L80.710537 45.779137L80.595423 45.894252Q79.712879 45.510537 79.060563 44.014049Q76.911761 45.58728 75.798988 46.738424Q76.067588 47.620968 77.103618 48.426769L76.950132 48.580255Q78.408248 50.729058 82.667482 51.112773Q83.933741 51.227887 87.195317 51.458116zM125.70875 49.079085Q122.79252 49.23257 121.52626 48.69537Q119.56932 47.889569 119.64606 45.395423Q119.79955 41.980361 119.79955 42.555933Q119.79955 37.183926 116.92169 32.310749Q118.917 33.270036 120.91232 33.65375Q122.63904 38.296699 122.52392 42.824534Q122.37044 44.321021 123.21461 45.548909Q124.13552 46.89191 125.67038 46.700053L126.0541 46.584938Q127.3971 46.508195 128.22209 45.740766Q129.04707 44.973336 129.04707 44.014049Q129.04707 43.783821 129.0087 43.591963Q128.93196 38.296699 130.0831 33.922351Q131.11913 33.845608 132.11679 33.615379L134.15048 33.11655Q131.57959 38.181585 131.88656 43.783821Q132.07842 46.89191 130.3517 48.043055Q129.04707 48.925599 125.70875 49.079085zM128.04941 51.496488Q131.54122 51.649974 133.38305 50.882544Q134.30397 50.115114 134.30397 48.69537Q134.30397 47.774454 134.03537 46.201224Q133.57491 43.054762 133.95862 40.023416Q134.34234 36.838583 135.76208 34.075837Q135.10977 34.382808 133.76676 34.804895Q133.99699 34.190951 134.30397 33.615379L134.87954 32.464234Q132.92259 33.11655 129.73776 33.615379Q128.50987 38.450185 128.66336 43.591963Q128.7401 45.702394 126.0541 46.201224L125.70875 46.316338H125.55527L124.59598 46.162852Q124.48087 45.241937 124.51924 44.743107Q124.7111 40.176902 124.02041 35.72581L122.98438 35.610696Q122.44718 35.572324 121.90998 35.45721Q121.52626 34.037465 121.25766 33.270036Q118.45655 32.847949 116.19263 31.543319Q118.34143 35.073495 119.07049 38.488557Q119.56932 40.714102 119.41583 44.244278Q119.4542 44.397764 119.37746 45.510537Q119.22397 47.889569 120.60535 48.848856Q120.98906 51.112773 128.04941 51.496488zM166.60122 36.531611Q164.03033 36.531611 162.9943 37.721127Q161.95827 38.910643 161.95827 41.558275Q161.95827 46.700053 166.60122 46.508195Q168.71165 46.700053 170.07384 45.126822Q171.43603 43.553592 171.2058 41.481532Q171.2058 38.910643 170.32326 37.874613Q168.82677 36.531611 166.60122 36.531611zM171.66626 46.393081Q170.47674 48.887227 165.75705 48.887227H164.29893Q161.9199 48.887227 160.80713 47.736083Q159.7711 46.700053 159.5025 44.28265Q159.34901 42.786162 159.27227 40.982703Q159.2339 39.985044 159.08041 38.028099Q158.9653 33.692122 164.18382 33.692122H165.75705Q168.67328 33.692122 170.78371 34.996752Q171.58952 35.495581 172.08835 36.186268Q172.35695 35.380467 172.89415 33.730493Q174.12203 33.538636 176.46269 32.924692Q173.85343 37.183926 173.85343 42.47919Q173.85343 46.239595 175.23481 49.347685Q174.08366 49.040713 172.16509 48.810484Q171.97323 47.966312 171.66626 46.393081zM175.00458 51.649974L177.23012 52.225546Q178.45801 52.532518 179.45567 52.992975Q175.77201 48.618627 175.77201 42.47919Q175.77201 37.912984 177.92081 34.075837Q177.26849 34.306065 175.92549 34.68978Q176.27084 33.922351 177.15338 32.387492Q176.57781 32.579349 172.5488 33.423521L171.97323 35.265352Q170.16977 33.500264 165.71868 33.270036Q164.60591 33.308407 162.34199 33.461893Q158.61996 33.807236 158.73507 37.874613Q158.85019 41.212931 159.42576 45.702394L159.46413 46.162852Q159.57924 47.007025 160.38504 48.119798Q160.53853 48.273283 160.73039 48.388398Q160.99899 48.887227 161.3827 49.462799Q162.80245 50.997658 166.21751 51.189516Q167.86748 51.30463 168.02097 51.30463H169.5942Q172.8174 51.30463 174.04529 49.7314Q174.39063 50.345343 175.00458 51.649974zM168.40468 38.795528Q169.74768 38.795528 170.59186 39.255986Q170.89883 40.061787 170.89883 41.519903Q171.09069 43.438477 169.80524 44.877408Q168.5198 46.316338 166.60122 46.124481Q165.14311 46.124481 164.10708 45.702394Q163.91522 44.858222 163.91522 43.630335Q164.03033 40.061787 166.67797 39.1025Q167.59888 38.795528 168.40468 38.795528z" /></svg>